<svg xmlns="http://www.w3.org/2000/svg" fill="none" viewBox="0 0 394 301">
<g clip-path="url(#clip0_1_32)">
<path d="M157.659 62.4205H156.222V22.8832C156.222 19.8781 155.632 16.9025 154.487 14.1262C153.342 11.3498 151.663 8.82723 149.547 6.70233C147.431 4.57743 144.918 2.89187 142.154 1.74188C139.389 0.591896 136.425 2.54612e-06 133.432 0H50.0105C43.9663 -1.15696e-05 38.1698 2.41087 33.8959 6.70228C29.6221 10.9937 27.2211 16.8141 27.2211 22.8831V239.788C27.2211 242.793 27.8105 245.769 28.9558 248.545C30.1011 251.321 31.7797 253.844 33.8959 255.969C36.0121 258.094 38.5244 259.779 41.2893 260.929C44.0542 262.079 47.0177 262.671 50.0104 262.671H133.432C139.476 262.671 145.273 260.26 149.547 255.969C153.821 251.677 156.222 245.857 156.222 239.788V90.5638H157.659V62.4205Z" fill="#3F3D56"/>
<path d="M134.352 5.9534H123.463C123.963 7.18618 124.154 8.52371 124.019 9.84815C123.884 11.1726 123.426 12.4433 122.687 13.5483C121.947 14.6533 120.948 15.5588 119.778 16.1849C118.608 16.811 117.302 17.1385 115.976 17.1386H68.185C66.8591 17.1385 65.5536 16.811 64.3834 16.1849C63.2132 15.5588 62.2143 14.6534 61.4747 13.5483C60.7351 12.4433 60.2775 11.1726 60.1422 9.84815C60.0069 8.52371 60.1981 7.18618 60.6989 5.9534H50.5282C48.2933 5.9534 46.0802 6.39542 44.0154 7.25421C41.9506 8.113 40.0744 9.37176 38.4941 10.9586C36.9137 12.5455 35.6601 14.4293 34.8049 16.5026C33.9496 18.5759 33.5094 20.7981 33.5094 23.0423V239.629C33.5094 241.873 33.9496 244.095 34.8049 246.168C35.6601 248.242 36.9137 250.126 38.4941 251.713C40.0744 253.299 41.9506 254.558 44.0154 255.417C46.0802 256.276 48.2932 256.718 50.5282 256.718H134.352C136.587 256.718 138.8 256.276 140.865 255.417C142.93 254.558 144.806 253.299 146.386 251.713C147.966 250.126 149.22 248.242 150.075 246.168C150.931 244.095 151.371 241.873 151.371 239.629V23.0423C151.371 20.7981 150.931 18.5759 150.075 16.5026C149.22 14.4293 147.966 12.5455 146.386 10.9586C144.806 9.37176 142.93 8.113 140.865 7.25421C138.8 6.39542 136.587 5.9534 134.352 5.9534Z" fill="white"/>
<path d="M184.397 262.709H0.482716C0.354692 262.709 0.231911 262.657 0.141384 262.567C0.050857 262.476 0 262.352 0 262.224C0 262.095 0.050857 261.972 0.141384 261.881C0.231911 261.79 0.354692 261.739 0.482716 261.739H184.397C184.525 261.739 184.648 261.79 184.739 261.881C184.829 261.972 184.88 262.095 184.88 262.224C184.88 262.352 184.829 262.476 184.739 262.567C184.648 262.657 184.525 262.709 184.397 262.709Z" fill="#CBCBCB"/>
<path d="M92.4401 167.552C114.953 167.552 133.204 149.226 133.204 126.62C133.204 104.015 114.953 85.6892 92.4401 85.6892C69.927 85.6892 51.6766 104.015 51.6766 126.62C51.6766 149.226 69.927 167.552 92.4401 167.552Z" fill="#0E0E10"/>
<path d="M88.4006 142.235C87.4836 142.236 86.5909 141.938 85.8572 141.386L85.8117 141.352L76.2317 133.993C75.788 133.651 75.4156 133.225 75.1359 132.739C74.8562 132.253 74.6745 131.717 74.6013 131.16C74.5281 130.604 74.5647 130.038 74.7092 129.496C74.8537 128.954 75.1031 128.445 75.4433 128C75.7834 127.554 76.2076 127.18 76.6917 126.899C77.1757 126.618 77.7101 126.436 78.2644 126.362C78.8187 126.289 79.3819 126.326 79.922 126.471C80.4621 126.616 80.9684 126.866 81.4121 127.208L87.6172 131.986L102.28 112.778C102.62 112.332 103.044 111.959 103.528 111.678C104.012 111.397 104.546 111.215 105.1 111.141C105.654 111.068 106.217 111.104 106.757 111.25C107.297 111.395 107.803 111.645 108.247 111.986L108.248 111.987L108.157 112.114L108.25 111.987C109.145 112.678 109.731 113.696 109.878 114.82C110.026 115.943 109.723 117.079 109.038 117.979L91.7906 140.562C91.3916 141.083 90.8785 141.504 90.2913 141.793C89.7041 142.082 89.0584 142.231 88.4044 142.23L88.4006 142.235Z" fill="white"/>
<path d="M335.123 266.732C335.619 265.926 336.203 265.179 336.864 264.504C337.136 264.221 337.424 263.953 337.72 263.693C339.522 262.082 341.719 260.982 344.085 260.507C346.451 260.031 348.901 260.197 351.182 260.987C353.463 261.777 355.493 263.163 357.064 265.002C358.634 266.841 359.689 269.068 360.119 271.452C362.11 264.059 356.927 256.777 351.717 251.184C346.504 245.592 340.545 239.458 340.575 231.796C340.59 227.533 342.667 223.73 345.803 220.91C345.899 220.824 345.996 220.739 346.095 220.657C349.885 217.394 354.761 215.688 359.75 215.878C369.017 216.377 377.11 222.631 382.729 230.05C391.775 241.987 395.739 258.743 389.406 272.331C383.836 284.282 371.956 291.379 359.832 297.084C358.139 297.881 356.45 298.654 354.764 299.403C354.753 299.406 354.74 299.414 354.729 299.417C354.648 299.452 354.567 299.488 354.491 299.525C354.143 299.679 353.795 299.833 353.45 299.986L353.609 300.091L354.108 300.415C353.935 300.31 353.764 300.208 353.591 300.103C353.54 300.071 353.485 300.041 353.434 300.009C347.479 296.421 341.442 292.626 337.328 287.025C333.062 281.209 331.346 272.879 335.123 266.732Z" fill="#F1F1F1"/>
<path d="M374.852 253.226C376.17 256.238 377.045 259.427 377.447 262.692C377.763 265.604 377.644 268.547 377.094 271.423C375.911 277.334 373.333 282.873 369.574 287.574C366.739 291.144 363.466 294.339 359.832 297.084C358.139 297.881 356.45 298.654 354.764 299.403C354.753 299.406 354.74 299.414 354.729 299.417C354.648 299.452 354.567 299.488 354.491 299.525C354.143 299.679 353.795 299.834 353.45 299.986L353.609 300.091L354.108 300.415C353.935 300.31 353.764 300.208 353.591 300.103C353.54 300.071 353.485 300.041 353.434 300.009C354.745 295.406 354.937 290.555 353.996 285.862C353.055 281.169 351.007 276.771 348.024 273.037C345.026 269.349 341.201 266.426 336.864 264.504C337.136 264.221 337.423 263.953 337.72 263.693C339.391 264.463 340.99 265.381 342.5 266.434C347.901 270.182 351.956 275.576 354.066 281.818C355.949 287.481 356.184 293.566 354.744 299.359C355.043 299.163 355.343 298.961 355.634 298.761C361.182 295.005 366.294 290.493 370.145 284.961C373.467 280.286 375.592 274.862 376.334 269.167C377.073 262.947 375.522 256.83 372.757 251.279C369.702 245.341 365.854 239.85 361.318 234.959C356.762 229.933 351.611 225.486 345.979 221.716C345.852 221.63 345.763 221.499 345.73 221.348C345.697 221.198 345.723 221.041 345.802 220.91C345.863 220.79 345.968 220.699 346.095 220.657C346.159 220.64 346.226 220.638 346.292 220.652C346.357 220.665 346.418 220.693 346.471 220.733C347.166 221.199 347.856 221.669 348.537 222.153C354.208 226.185 359.359 230.909 363.87 236.217C368.23 241.333 372.197 247.017 374.852 253.226Z" fill="white"/>
<path d="M253.446 19.0054C258.227 19.0054 262.103 15.1136 262.103 10.3127C262.103 5.51192 258.227 1.62007 253.446 1.62007C248.665 1.62007 244.789 5.51192 244.789 10.3127C244.789 15.1136 248.665 19.0054 253.446 19.0054Z" fill="#F1F1F1"/>
<path d="M361.092 135.334C364.007 135.334 366.37 132.961 366.37 130.034C366.37 127.107 364.007 124.734 361.092 124.734C358.177 124.734 355.814 127.107 355.814 130.034C355.814 132.961 358.177 135.334 361.092 135.334Z" fill="#F1F1F1"/>
<path d="M206.622 149.875C209.537 149.875 211.901 147.502 211.901 144.575C211.901 141.648 209.537 139.275 206.622 139.275C203.708 139.275 201.344 141.648 201.344 144.575C201.344 147.502 203.708 149.875 206.622 149.875Z" fill="#F1F1F1"/>
<path d="M209.603 301H393.517C393.645 301 393.768 300.949 393.859 300.858C393.949 300.767 394 300.644 394 300.515C394 300.387 393.949 300.263 393.859 300.173C393.768 300.082 393.645 300.031 393.517 300.031H209.603C209.475 300.031 209.352 300.082 209.261 300.173C209.171 300.263 209.12 300.387 209.12 300.515C209.12 300.644 209.171 300.767 209.261 300.858C209.352 300.949 209.475 301 209.603 301Z" fill="#CBCBCB"/>
<path d="M373.221 46.8392C373.463 45.1176 373.067 43.3668 372.109 41.9187C371.151 40.4705 369.697 39.4256 368.022 38.9819C366.348 38.5382 364.57 38.7266 363.025 39.5113C361.48 40.2961 360.275 41.6226 359.639 43.2397L344.715 60.4196L349.094 72.7004L364.103 52.6263C365.082 52.9414 366.119 53.0369 367.139 52.9063C368.159 52.7757 369.138 52.422 370.008 51.8703C370.877 51.3185 371.615 50.5821 372.17 49.7128C372.726 48.8436 373.084 47.8627 373.221 46.8392Z" fill="#FFB7B7"/>
<path d="M311.358 113.686L360.899 60.5975L354.216 49.9301L292.08 102.697L311.358 113.686Z" fill="#3F3D56"/>
<path d="M300.301 81.43C309.899 81.43 317.679 73.6176 317.679 63.9807C317.679 54.3437 309.899 46.5314 300.301 46.5314C290.704 46.5314 282.923 54.3437 282.923 63.9807C282.923 73.6176 290.704 81.43 300.301 81.43Z" fill="#2F2E41"/>
<path d="M301.698 54.1234C305.437 50.3158 309.963 47.3775 314.955 45.5155C318.16 44.3234 321.648 43.5869 324.998 44.2639C328.348 44.9408 331.516 47.2681 332.451 50.5687C333.215 53.2677 332.426 56.1737 331.24 58.7144C330.054 61.2551 328.471 63.6111 327.511 66.2466C326.533 68.9358 326.238 71.8278 326.655 74.6601C327.072 77.4924 328.186 80.1754 329.898 82.4655C331.609 84.7555 333.863 86.5801 336.455 87.7737C339.047 88.9673 341.894 89.492 344.739 89.3002C341.447 89.7434 338.413 91.2967 335.195 92.1235C331.978 92.9503 328.18 92.8942 325.789 90.5796C323.259 88.1307 323.208 84.149 323.331 80.6226C323.513 75.3806 323.695 70.1385 323.876 64.8965C323.969 62.2231 324.048 59.4641 323.088 56.9689C322.128 54.4737 319.846 52.2888 317.182 52.3115C315.163 52.3287 313.376 53.5568 311.757 54.768C310.138 55.9791 308.424 57.2713 306.413 57.4515C304.402 57.6316 302.106 56.1372 302.256 54.1155L301.698 54.1234Z" fill="#2F2E41"/>
<path d="M234.299 181.144C232.631 181.61 230.851 181.444 229.295 180.68C227.74 179.915 226.519 178.604 225.862 176.996C225.205 175.387 225.159 173.592 225.732 171.952C226.305 170.311 227.457 168.938 228.97 168.094L243.983 150.992L256.681 153.746L238.822 171.311C239.261 172.245 239.491 173.264 239.495 174.297C239.499 175.329 239.278 176.35 238.847 177.288C238.416 178.225 237.785 179.056 236.999 179.723C236.214 180.389 235.292 180.874 234.299 181.144H234.299Z" fill="#FFB7B7"/>
<path d="M283.691 119.918L246.273 167.079L234.868 161.821L278.848 93.0686L283.691 119.918Z" fill="#3F3D56"/>
<path d="M253.835 262.326L244.917 262.186L245.99 292.705H253.834L253.835 262.326Z" fill="#FFB7B7"/>
<path d="M255.835 290.134L240.387 290.133H240.386C237.776 290.133 235.272 291.175 233.426 293.029C231.58 294.882 230.542 297.396 230.542 300.018V300.339L255.834 300.34L255.835 290.134Z" fill="#2F2E41"/>
<path d="M312.879 254.232L303.138 260.511L322.624 284.051L329.225 279.796L312.879 254.232Z" fill="#FFB7B7"/>
<path d="M329.525 276.546L316.526 284.926L316.525 284.927C314.328 286.343 312.782 288.578 312.226 291.139C311.67 293.701 312.15 296.379 313.56 298.585L313.733 298.855L335.016 285.135L329.525 276.546Z" fill="#2F2E41"/>
<path d="M316.35 161.037C316.35 161.037 294.705 88.852 287.749 87.8766C280.793 86.9011 269.586 106.399 269.586 106.399C255.054 125.015 240.07 185.318 240.07 185.318C240.07 185.318 265.049 186.888 283.309 196.642C301.568 206.397 323.117 196.149 323.117 196.149L316.35 161.037Z" fill="#3F3D56"/>
<path opacity="0.1" d="M316.35 161.037C316.35 161.037 294.705 88.8521 287.749 87.8766C280.793 86.9011 272.432 106.596 272.432 106.596C265.191 136.648 240.07 185.318 240.07 185.318C240.07 185.318 265.049 186.888 283.309 196.642C301.568 206.397 323.117 196.149 323.117 196.149L316.35 161.037Z" fill="black"/>
<path d="M298.592 139.44V175.713L302.843 228.256L324.083 268.002L313.946 275.273L284.983 237.466L273.528 199.926L255.537 283.028L242.021 282.058L251.408 166.839L269.221 134.408L298.592 139.44Z" fill="#2F2E41"/>
<path d="M276.769 104.356C270.011 111.142 276.286 118.413 276.286 118.413L268.563 135.862L298.974 144.102L309.601 96.4176L302.36 88.6624C287.879 88.1777 287.871 87.8763 287.871 87.8763C285.334 90.3696 276.769 104.356 276.769 104.356Z" fill="#0E0E10"/>
<path d="M310.826 91.4776C309.445 90.4539 307.875 89.7155 306.208 89.3052C304.54 88.8949 302.808 88.8209 301.112 89.0875C299.416 89.3541 297.789 89.9559 296.327 90.8582C294.864 91.7604 293.594 92.9451 292.59 94.3437C284.945 105.032 277.876 122.292 287.616 143.818C303.255 178.382 316.865 196.076 322.398 196.074C322.64 196.076 322.88 196.038 323.109 195.962C326.515 194.802 331.439 189.015 332.33 183.916C332.649 182.091 332.574 179.548 330.4 177.803C324.156 172.788 312.946 157.173 309.449 136.62C307.516 125.264 311.264 114.919 314.748 108.241C316.22 105.478 316.65 102.275 315.961 99.2187C315.271 96.1626 313.508 93.4584 310.994 91.6018V91.6018L310.826 91.4776Z" fill="#3F3D56"/>
<path d="M301.195 79.7157C307.394 76.3131 309.672 68.5087 306.284 62.2841C302.895 56.0595 295.122 53.7719 288.923 57.1745C282.724 60.5772 280.446 68.3816 283.835 74.6062C287.223 80.8308 294.996 83.1184 301.195 79.7157Z" fill="#FFB7B7"/>
<path d="M277.069 67.474H295.54L295.73 64.8111L296.677 67.474H299.521L299.897 62.1963L301.774 67.474H307.277V67.2125C307.273 63.5382 305.817 60.0156 303.23 57.4175C300.643 54.8194 297.134 53.358 293.475 53.3538H290.871C287.212 53.3579 283.704 54.8194 281.116 57.4175C278.529 60.0156 277.073 63.5382 277.069 67.2125V67.474Z" fill="#2F2E41"/>
<path d="M304.486 77.0455L312.369 74.4772V55.256H297.48L297.849 55.6256C302.977 60.7687 308.681 79.0159 304.486 77.0455Z" fill="#2F2E41"/>
</g>
<defs>
<clipPath id="clip0_1_32">
<rect width="394" height="301" fill="white"/>
</clipPath>
</defs>
</svg>