<svg xmlns="http://www.w3.org/2000/svg" width="32" height="32" viewBox="0 0 32 32" fill="none">
<path d="M5.62304 17.4503C6.12102 14.2134 6.37001 12.595 7.49382 11.6309C8.61763 10.6667 10.2551 10.6667 13.53 10.6667H18.47C21.7449 10.6667 23.3824 10.6667 24.5062 11.6309C25.63 12.595 25.879 14.2134 26.377 17.4503L27.6455 25.696C27.8103 26.7669 27.8927 27.3023 27.5934 27.6512C27.2941 28.0001 26.7523 28.0001 25.6688 28.0001H6.33122C5.24771 28.0001 4.70595 28.0001 4.40665 27.6512C4.10734 27.3023 4.18972 26.7669 4.35448 25.696L5.62304 17.4503Z" fill="#2A4157" fill-opacity="0.24"/>
<path d="M11.333 14.6667L11.333 10.0001C11.333 7.42275 13.4223 5.33341 15.9997 5.33341V5.33341C18.577 5.33341 20.6663 7.42275 20.6663 10.0001L20.6663 14.6667" stroke="#222222" stroke-linecap="round"/>
</svg>