<svg xmlns="http://www.w3.org/2000/svg" width="240" height="129" viewBox="0 0 240 129" fill="none">
<g clip-path="url(#clip0_186_985)">
<path d="M130.236 68.2402V68.5203C130.235 71.0931 129.205 73.5604 127.373 75.3794C125.54 77.1983 123.054 78.22 120.462 78.2196H10.1428C7.55151 78.2193 5.06643 77.1973 3.23412 75.3784C1.40181 73.5595 0.372317 71.0927 0.37207 68.5203V68.2402H130.236Z" fill="#F2F2F2"/>
<path d="M23.4456 22.0683C15.4733 24.0229 8.31648 17.9343 7.06689 12.2859L7.62195 12.1874C14.3415 10.713 21.8424 15.481 23.4456 22.0683Z" fill="#0E0E10"/>
<path d="M216.151 126.673C213.846 125.685 213.322 122.084 215.252 120.488C217.181 118.893 220.654 120.056 221.216 122.486L219.065 107.213C218.571 103.701 218.175 99.7759 220.313 96.9356C222.314 94.2758 226.225 93.4237 229.365 94.5686C232.504 95.7136 234.824 98.5698 235.809 101.743C236.793 104.916 236.561 108.364 235.701 111.573C234.842 114.781 233.381 117.795 231.904 120.774C230.391 123.826 228.555 127.134 225.32 128.258C222.23 129.331 216.151 126.673 216.151 126.673Z" fill="#F2F2F2"/>
<path d="M226.256 94.2789C227.669 98.6579 228.342 103.239 228.247 107.836C228.158 112.413 227.33 116.946 225.794 121.262C224.92 123.711 223.812 126.072 222.485 128.311C222.428 128.417 222.414 128.54 222.447 128.655C222.48 128.771 222.556 128.869 222.66 128.93C222.764 128.99 222.888 129.008 223.006 128.98C223.123 128.951 223.224 128.879 223.289 128.777C225.67 124.738 227.362 120.336 228.296 115.749C229.244 111.141 229.434 106.41 228.858 101.741C228.534 99.1245 227.963 96.544 227.153 94.0335C226.97 93.4701 226.071 93.711 226.256 94.2789Z" fill="white"/>
<path d="M214.784 121.051L222.147 128.731C222.561 129.163 223.218 128.509 222.805 128.078L215.442 120.398C215.029 119.966 214.372 120.62 214.784 121.051Z" fill="white"/>
<path d="M208.53 92.051C208.268 92.0515 208.014 91.9579 207.816 91.7875C203.27 88.849 199.223 85.2116 195.827 81.0115C195.62 80.8158 195.497 80.5472 195.487 80.2631C195.476 79.9791 195.577 79.7021 195.77 79.4914L198.001 77.0449L198.461 77.4582L196.229 79.9047C196.144 79.9976 196.1 80.1202 196.107 80.2454C196.113 80.3706 196.169 80.4883 196.263 80.5725L196.295 80.6066C199.657 84.7691 203.666 88.3729 208.171 91.2822L208.211 91.313C208.305 91.3972 208.428 91.441 208.555 91.4348C208.681 91.4286 208.799 91.3729 208.884 91.28L213.238 86.5064C213.319 86.4177 213.363 86.3017 213.362 86.182C213.36 86.0622 213.312 85.9476 213.229 85.8614C212.219 85.3156 211.235 84.7206 210.302 84.0925L210.65 83.583C211.578 84.2075 212.557 84.7986 213.561 85.3401L213.621 85.3825C213.728 85.4784 213.815 85.5943 213.876 85.7235C213.938 85.8526 213.973 85.9926 213.981 86.1354C213.988 86.2781 213.966 86.4208 213.918 86.5554C213.869 86.69 213.795 86.8138 213.698 86.9198L209.344 91.6933C209.247 91.7995 209.131 91.8857 209 91.9469C208.87 92.0081 208.729 92.043 208.585 92.0496C208.567 92.0506 208.548 92.051 208.53 92.051Z" fill="#3F3D56"/>
<path d="M203.729 84.0153C205.097 85.2434 206.502 85.9175 206.868 85.5174C206.915 85.4495 206.945 85.371 206.955 85.2889C206.965 85.2067 206.954 85.1234 206.923 85.0464C206.775 84.5933 206.538 84.1739 206.226 83.8121C205.01 82.9533 203.829 82.0268 202.681 81.0325C202.322 80.9156 202.046 80.9186 201.912 81.0664C201.893 81.0875 201.878 81.1114 201.866 81.1372C201.636 81.602 202.433 82.8486 203.729 84.0153Z" fill="#0E0E10"/>
<path d="M195.488 74.119C195.499 74.3993 195.622 74.6637 195.829 74.8547C197.666 77.1082 199.685 79.2094 201.866 81.1372C203.462 82.5506 205.152 83.8566 206.923 85.0464C207.218 85.2465 207.516 85.4404 207.817 85.6313C208.014 85.8028 208.267 85.8969 208.53 85.896C208.548 85.896 208.567 85.8929 208.586 85.8929C208.73 85.8863 208.871 85.8513 209.002 85.79C209.132 85.7287 209.249 85.6423 209.345 85.5358L213.699 80.7647C213.894 80.5504 213.996 80.2679 213.981 79.9793C213.967 79.6907 213.837 79.4196 213.621 79.2257L213.562 79.1826C208.809 76.634 204.747 72.9835 201.72 68.5414L201.674 68.486C201.458 68.2923 201.173 68.1915 200.883 68.206C200.592 68.2204 200.319 68.3488 200.123 68.563L195.77 73.3341C195.673 73.44 195.598 73.5639 195.55 73.6986C195.501 73.8333 195.48 73.9762 195.488 74.119ZM196.108 74.0882C196.104 74.0267 196.113 73.9651 196.134 73.907C196.155 73.8489 196.187 73.7954 196.229 73.7496L200.582 68.9754C200.624 68.9291 200.676 68.8917 200.732 68.8653C200.789 68.8388 200.851 68.824 200.914 68.8215C201.028 68.8147 201.141 68.8498 201.23 68.92C204.301 73.4172 208.416 77.1162 213.227 79.7058C213.311 79.7916 213.359 79.9057 213.361 80.0251C213.364 80.1445 213.32 80.2603 213.24 80.3492L208.883 85.1234C208.842 85.1699 208.791 85.2075 208.735 85.234C208.678 85.2604 208.617 85.2752 208.555 85.2773C208.428 85.2834 208.305 85.2403 208.21 85.1573L208.17 85.1265C207.513 84.7078 206.865 84.2697 206.226 83.8121C205.01 82.9533 203.829 82.0268 202.682 81.0325C200.365 79.0264 198.227 76.8244 196.294 74.4515L196.263 74.4176C196.17 74.3321 196.114 74.2139 196.108 74.0883V74.0882Z" fill="#3F3D56"/>
<path d="M206.867 79.362C207.232 78.9626 206.418 77.6418 205.05 76.4121C203.682 75.1823 202.277 74.5091 201.913 74.9086C201.549 75.308 202.362 76.6288 203.73 77.8586C205.098 79.0883 206.503 79.7615 206.867 79.362Z" fill="#0E0E10"/>
<path d="M179.51 125.142L175.709 125.141L173.9 110.585L179.511 110.586L179.51 125.142Z" fill="#FFB8B8"/>
<path d="M180.48 128.8L168.222 128.799V128.645C168.222 128.023 168.345 127.407 168.585 126.833C168.825 126.258 169.176 125.736 169.619 125.296C170.062 124.857 170.588 124.508 171.167 124.27C171.746 124.032 172.366 123.909 172.993 123.909H172.993L180.48 123.909L180.48 128.8Z" fill="#2F2E41"/>
<path d="M190.673 125.142L186.872 125.141L185.063 110.585L190.674 110.586L190.673 125.142Z" fill="#FFB8B8"/>
<path d="M191.643 128.8L179.385 128.799V128.645C179.385 128.023 179.508 127.407 179.748 126.833C179.988 126.258 180.339 125.736 180.782 125.296C181.225 124.857 181.751 124.508 182.33 124.27C182.909 124.032 183.529 123.909 184.156 123.909H184.156L191.643 123.909L191.643 128.8Z" fill="#2F2E41"/>
<path d="M193.224 66.3163L192.317 119.782C192.314 119.951 192.276 120.118 192.205 120.272C192.134 120.426 192.032 120.564 191.905 120.677C191.778 120.79 191.629 120.876 191.467 120.93C191.305 120.983 191.134 121.003 190.964 120.987L186.516 120.586C186.224 120.559 185.951 120.431 185.745 120.224C185.539 120.017 185.414 119.745 185.391 119.455L182.787 86.1045C182.781 86.0262 182.745 85.9531 182.686 85.9003C182.628 85.8476 182.551 85.819 182.472 85.8205C182.393 85.8221 182.317 85.8536 182.261 85.9087C182.204 85.9637 182.171 86.0382 182.168 86.1167L180.866 120.23C180.854 120.549 180.718 120.85 180.487 121.071C180.256 121.292 179.948 121.415 179.627 121.415H174.856C174.54 121.415 174.236 121.295 174.006 121.081C173.776 120.866 173.637 120.572 173.618 120.259L170.278 66.0085L190.124 61.0835L193.224 66.3163Z" fill="#2F2E41"/>
<path d="M178.83 16.1126C183.036 16.1126 186.446 12.7278 186.446 8.55242C186.446 4.37702 183.036 0.992188 178.83 0.992188C174.624 0.992188 171.214 4.37702 171.214 8.55242C171.214 12.7278 174.624 16.1126 178.83 16.1126Z" fill="#FFB8B8"/>
<path d="M169.598 67.9067C169.466 67.7802 169.361 67.629 169.289 67.4617C169.216 67.2945 169.177 67.1146 169.175 66.9325L168.662 30.4743C168.631 28.6197 169.193 26.8031 170.267 25.2854C171.341 23.7677 172.873 22.6271 174.641 22.0274C175.354 18.814 179.152 18.4115 181.366 18.4596C181.918 18.4714 182.46 18.6153 182.944 18.8791C183.429 19.1429 183.842 19.5188 184.149 19.9749L185.736 22.3379L189.234 24.3733C190.853 25.3112 192.13 26.7353 192.881 28.4402C193.631 30.1451 193.817 32.0426 193.411 33.859L192.873 36.2906C190.976 44.8968 191.157 53.8263 193.399 62.3502L194.483 66.4515C194.539 66.6651 194.543 66.889 194.495 67.1046C194.447 67.3201 194.347 67.521 194.204 67.6905C194.062 67.8601 193.88 67.9933 193.675 68.0791C193.47 68.1649 193.248 68.2009 193.026 68.1839L191.767 68.0877C191.441 68.0631 191.133 67.9251 190.899 67.6977C190.664 67.4704 190.518 67.1684 190.486 66.8447L190.278 64.7772C190.274 64.7392 190.256 64.704 190.228 64.6784C190.199 64.6528 190.162 64.6386 190.123 64.6386C190.085 64.6386 190.048 64.6528 190.019 64.6784C189.991 64.704 189.973 64.7392 189.969 64.7772L189.768 66.7789C189.734 67.117 189.575 67.431 189.323 67.661C189.071 67.8909 188.743 68.0209 188.401 68.0261L170.592 68.2981C170.585 68.2981 170.577 68.2984 170.57 68.2984C170.207 68.2991 169.858 68.1585 169.598 67.9067Z" fill="#3F3D56"/>
<path d="M179.426 12.9104C179.457 13.9791 180.204 14.5974 181.122 15.1572C182.04 15.717 183.112 15.9597 184.163 16.1938C184.304 16.2682 184.462 16.3053 184.622 16.3014C184.782 16.2975 184.938 16.2528 185.075 16.1716C185.213 16.0904 185.326 15.9755 185.406 15.8378C185.485 15.7002 185.528 15.5446 185.529 15.386L186.493 11.7466C186.834 10.584 187.082 9.39661 187.235 8.19535C187.467 5.88393 186.915 3.39743 185.29 1.72622C183.665 0.0550135 180.846 -0.538656 178.899 0.748982C176.588 -2.18134 166.023 4.29284 168.629 6.33051C169.093 6.69301 169.801 6.23432 170.39 6.18986C170.978 6.1454 171.638 6.24815 172.012 6.70151C172.5 7.2938 172.287 8.1761 172.488 8.91496C172.572 9.17494 172.706 9.41598 172.884 9.62419C173.061 9.8324 173.278 10.0037 173.523 10.1281C173.768 10.2525 174.034 10.3277 174.308 10.3492C174.582 10.3707 174.858 10.3382 175.119 10.2534C175.606 10.0155 176.063 9.72335 176.483 9.38276C176.935 9.08431 177.505 8.86379 178.013 9.05202C178.683 9.30014 178.921 10.1141 178.982 10.8212C179.084 11.5264 179.232 12.2243 179.426 12.9104Z" fill="#2F2E41"/>
<path opacity="0.2" d="M177.647 33.1724L176.407 48.2552L169.895 63.9538L179.507 48.5631L177.647 33.1724Z" fill="black"/>
<path d="M168.372 69.8C168.728 69.5167 169.016 69.1594 169.218 68.7534C169.419 68.3475 169.528 67.9026 169.537 67.4502C169.547 66.9978 169.456 66.5488 169.272 66.1349C169.088 65.721 168.814 65.3523 168.471 65.0547L172.619 54.855L166.975 55.9864L163.901 65.4988C163.435 66.1046 163.21 66.8588 163.267 67.6185C163.325 68.3783 163.661 69.0907 164.212 69.6209C164.763 70.1511 165.491 70.4621 166.258 70.4951C167.025 70.5282 167.777 70.2808 168.372 69.8V69.8Z" fill="#FFB8B8"/>
<path d="M168.07 65.3015L164.875 64.1585C164.546 64.0389 164.274 63.8014 164.112 63.4926C163.951 63.1839 163.911 62.8263 164.002 62.4902L169.273 43.3382L170.076 26.0291C170.101 25.5066 170.229 24.9942 170.455 24.5215C170.68 24.0488 170.998 23.6254 171.39 23.2758C171.782 22.9262 172.24 22.6574 172.737 22.485C173.235 22.3127 173.762 22.2402 174.288 22.2719C174.814 22.3035 175.328 22.4387 175.801 22.6694C176.274 22.9001 176.695 23.2218 177.042 23.6159C177.388 24.0099 177.652 24.4684 177.819 24.9647C177.985 25.4609 178.05 25.9851 178.011 26.5066L176.576 45.4597L169.86 64.4575C169.758 64.7445 169.564 64.9903 169.308 65.1572C169.051 65.324 168.747 65.4025 168.441 65.3807C168.314 65.3711 168.19 65.3445 168.07 65.3015Z" fill="#3F3D56"/>
<path d="M200.996 70.8003C201.215 70.4029 201.342 69.9629 201.37 69.5112C201.399 69.0596 201.327 68.6073 201.16 68.1862C200.993 67.7651 200.735 67.3855 200.404 67.0741C200.074 66.7626 199.678 66.527 199.246 66.3837L199.115 55.3848L194.346 58.5876L195.201 68.5413C195.007 69.2783 195.091 70.0605 195.439 70.7397C195.787 71.4188 196.374 71.9477 197.088 72.2262C197.802 72.5046 198.595 72.5133 199.315 72.2505C200.036 71.9877 200.634 71.4717 200.997 70.8003L200.996 70.8003Z" fill="#FFB8B8"/>
<path d="M198.972 66.7647L195.58 66.9319C195.23 66.9475 194.886 66.8324 194.618 66.6092C194.349 66.3861 194.174 66.0711 194.127 65.7263L191.557 46.0371L185.581 29.7569C185.4 29.2655 185.32 28.7435 185.345 28.221C185.369 27.6986 185.498 27.1863 185.724 26.7138C185.95 26.2413 186.269 25.8181 186.661 25.4689C187.053 25.1196 187.511 24.8512 188.009 24.6793C188.506 24.5073 189.033 24.4353 189.559 24.4674C190.085 24.4995 190.599 24.635 191.072 24.8661C191.544 25.0972 191.966 25.4193 192.312 25.8136C192.658 26.2079 192.922 26.6665 193.088 27.1629L199.12 45.2017L200.296 65.3013C200.313 65.6051 200.23 65.9062 200.058 66.1582C199.886 66.4102 199.636 66.5992 199.345 66.696C199.224 66.7356 199.099 66.7587 198.972 66.7647Z" fill="#3F3D56"/>
<path d="M239.69 128.956H121.547C121.465 128.956 121.386 128.924 121.328 128.866C121.27 128.808 121.237 128.73 121.237 128.648C121.237 128.567 121.27 128.488 121.328 128.43C121.386 128.373 121.465 128.34 121.547 128.34H239.69C239.772 128.34 239.851 128.373 239.909 128.43C239.967 128.488 240 128.567 240 128.648C240 128.73 239.967 128.808 239.909 128.866C239.851 128.924 239.772 128.956 239.69 128.956Z" fill="#3F3D56"/>
<path d="M100.226 62.4994C98.4446 62.4994 97.0283 61.9737 96.0155 60.9366C93.7266 58.5925 93.87 54.0743 93.9852 50.4439C94.0187 49.3877 94.0503 48.39 94.0184 47.5543L94.0181 47.5417C94.0262 45.909 94.683 44.3453 95.8457 43.1905C97.0085 42.0356 98.5834 41.3829 100.228 41.374H114.993C116.772 41.374 118.187 41.899 119.199 42.9347C121.488 45.2769 121.346 49.794 121.232 53.4236C121.199 54.482 121.167 55.4818 121.2 56.3189C121.194 57.9541 120.538 59.5209 119.375 60.6783C118.211 61.8358 116.634 62.4903 114.987 62.4994H100.226ZM94.6383 47.5374C94.6707 48.393 94.6388 49.3987 94.605 50.4632C94.4935 53.9776 94.3547 58.3513 96.4608 60.5081C97.3648 61.4338 98.5963 61.8838 100.225 61.8838H114.986C116.467 61.876 117.886 61.2883 118.933 60.2484C119.981 59.2085 120.572 57.8004 120.58 56.3299C120.547 55.484 120.578 54.4738 120.612 53.4043C120.722 49.8909 120.86 45.5182 118.754 43.3634C117.85 42.439 116.62 41.9896 114.993 41.9896H100.229C98.7492 41.9978 97.3323 42.5849 96.2857 43.6235C95.2391 44.662 94.6471 46.0684 94.6383 47.5374Z" fill="#3F3D56"/>
<path d="M20.1835 22.6345C17.5945 22.6189 15.0619 21.8826 12.8736 20.5091C9.66767 18.5316 7.24702 15.3645 6.55629 12.2441L6.48706 11.9314L7.35342 11.7775C14.1732 10.2833 21.8868 15.0982 23.5392 21.885L23.6117 22.1826L23.3123 22.2561C22.2887 22.5075 21.238 22.6346 20.1835 22.6345ZM7.23703 12.4236C7.98117 15.2861 10.2396 18.1595 13.2009 19.9862C16.0641 21.8052 19.5339 22.4314 22.8588 21.7293C21.1299 15.4063 13.8903 10.9693 7.48128 12.38L7.23703 12.4236Z" fill="#3F3D56"/>
<path d="M11.5809 57.6152C9.5521 57.6152 7.90387 56.714 6.9362 55.0701C6.39383 54.1136 6.10874 53.0346 6.1084 51.9371C6.10805 50.8395 6.39247 49.7604 6.93424 48.8036C7.91737 47.1315 9.6049 46.2245 11.689 46.2562H31.362C33.4391 46.2299 35.1279 47.1329 36.1116 48.8069C36.6534 49.7635 36.938 50.8424 36.9379 51.9398C36.9378 53.0371 36.653 54.116 36.111 55.0725C35.1277 56.7426 33.4394 57.6346 31.3573 57.6145H11.684C11.6495 57.6149 11.6151 57.6152 11.5809 57.6152ZM11.5924 46.8711C9.78311 46.8711 8.32163 47.6652 7.46985 49.114C6.98177 49.9759 6.72556 50.9481 6.72589 51.9369C6.72621 52.9257 6.98307 53.8977 7.47171 54.7594C8.33784 56.2311 9.82926 57.0277 11.6793 56.9989H31.362C33.214 57.0282 34.7101 56.2319 35.5756 54.7618C36.0638 53.9001 36.3203 52.9281 36.3204 51.9395C36.3205 50.9509 36.0641 49.9789 35.5759 49.1171C34.7098 47.6433 33.2135 46.8497 31.3664 46.8718H11.6825C11.6524 46.8714 11.6222 46.8711 11.5924 46.8711H11.5924Z" fill="#3F3D56"/>
<path d="M105.274 48.6939H99.0724C98.6612 48.6939 98.2668 48.5317 97.9761 48.2431C97.6853 47.9545 97.522 47.563 97.522 47.1548C97.522 46.7466 97.6853 46.3551 97.9761 46.0665C98.2668 45.7779 98.6612 45.6157 99.0724 45.6157H105.274C105.685 45.6157 106.08 45.7779 106.37 46.0665C106.661 46.3551 106.825 46.7466 106.825 47.1548C106.825 47.563 106.661 47.9545 106.37 48.2431C106.08 48.5317 105.685 48.6939 105.274 48.6939Z" fill="#0E0E10"/>
<path d="M105.274 53.6192H99.0724C98.6612 53.6192 98.2668 53.457 97.9761 53.1684C97.6853 52.8797 97.522 52.4883 97.522 52.0801C97.522 51.6719 97.6853 51.2804 97.9761 50.9918C98.2668 50.7032 98.6612 50.541 99.0724 50.541H105.274C105.685 50.541 106.08 50.7032 106.37 50.9918C106.661 51.2804 106.825 51.6719 106.825 52.0801C106.825 52.4883 106.661 52.8797 106.37 53.1684C106.08 53.457 105.685 53.6192 105.274 53.6192Z" fill="#0E0E10"/>
<path d="M105.274 58.544H99.0724C98.6612 58.544 98.2668 58.3818 97.9761 58.0932C97.6853 57.8046 97.522 57.4131 97.522 57.0049C97.522 56.5967 97.6853 56.2052 97.9761 55.9166C98.2668 55.628 98.6612 55.4658 99.0724 55.4658H105.274C105.685 55.4658 106.08 55.628 106.37 55.9166C106.661 56.2052 106.825 56.5967 106.825 57.0049C106.825 57.4131 106.661 57.8046 106.37 58.0932C106.08 58.3818 105.685 58.544 105.274 58.544Z" fill="#0E0E10"/>
<path d="M116.127 48.6939H109.925C109.514 48.6939 109.12 48.5317 108.829 48.2431C108.538 47.9545 108.375 47.563 108.375 47.1548C108.375 46.7466 108.538 46.3551 108.829 46.0665C109.12 45.7779 109.514 45.6157 109.925 45.6157H116.127C116.538 45.6157 116.933 45.7779 117.223 46.0665C117.514 46.3551 117.678 46.7466 117.678 47.1548C117.678 47.563 117.514 47.9545 117.223 48.2431C116.933 48.5317 116.538 48.6939 116.127 48.6939Z" fill="#0E0E10"/>
<path d="M116.127 53.6192H109.925C109.514 53.6192 109.12 53.457 108.829 53.1684C108.538 52.8797 108.375 52.4883 108.375 52.0801C108.375 51.6719 108.538 51.2804 108.829 50.9918C109.12 50.7032 109.514 50.541 109.925 50.541H116.127C116.538 50.541 116.933 50.7032 117.223 50.9918C117.514 51.2804 117.678 51.6719 117.678 52.0801C117.678 52.4883 117.514 52.8797 117.223 53.1684C116.933 53.457 116.538 53.6192 116.127 53.6192Z" fill="#0E0E10"/>
<path d="M116.127 58.544H109.925C109.514 58.544 109.12 58.3818 108.829 58.0932C108.538 57.8046 108.375 57.4131 108.375 57.0049C108.375 56.5967 108.538 56.2052 108.829 55.9166C109.12 55.628 109.514 55.4658 109.925 55.4658H116.127C116.538 55.4658 116.933 55.628 117.223 55.9166C117.514 56.2052 117.678 56.5967 117.678 57.0049C117.678 57.4131 117.514 57.8046 117.223 58.0932C116.933 58.3818 116.538 58.544 116.127 58.544Z" fill="#0E0E10"/>
<path d="M130.236 26.8208H0.37207V27.4364H130.236V26.8208Z" fill="#3F3D56"/>
<path d="M120.003 78.3979H10.2328C7.51986 78.3949 4.91888 77.3237 3.00051 75.4194C1.08215 73.5151 0.00306457 70.9331 0 68.24V15.296C0.00306457 12.6029 1.08215 10.021 3.00051 8.11671C4.91888 6.2124 7.51986 5.14123 10.2328 5.13818H120.003C122.716 5.14123 125.317 6.2124 127.236 8.11671C129.154 10.021 130.233 12.6029 130.236 15.296V68.24C130.233 70.9331 129.154 73.5151 127.236 75.4194C125.317 77.3237 122.716 78.3949 120.003 78.3979ZM10.2328 5.75381C7.68428 5.75669 5.24095 6.76296 3.43885 8.55185C1.63675 10.3407 0.623067 12.7662 0.620172 15.296V68.24C0.623068 70.7699 1.63676 73.1954 3.43885 74.9843C5.24095 76.7731 7.68428 77.7794 10.2328 77.7823H120.003C122.552 77.7794 124.995 76.7732 126.797 74.9843C128.599 73.1954 129.613 70.7699 129.616 68.24V15.296C129.613 12.7662 128.599 10.3407 126.797 8.55184C124.995 6.76294 122.552 5.75668 120.003 5.75381H10.2328Z" fill="#3F3D56"/>
</g>
<defs>
<clipPath id="clip0_186_985">
<rect width="240" height="129" fill="white"/>
</clipPath>
</defs>
</svg>