<svg xmlns="http://www.w3.org/2000/svg" width="32" height="32" viewBox="0 0 32 32" fill="none">
<path d="M5.33301 9.83325C5.33301 9.59755 5.33301 9.4797 5.40623 9.40648C5.47945 9.33325 5.59731 9.33325 5.83301 9.33325H26.1663C26.402 9.33325 26.5199 9.33325 26.5931 9.40648C26.6663 9.4797 26.6663 9.59755 26.6663 9.83325V10.3576C26.6663 10.5079 26.6663 10.5831 26.629 10.6435C26.5917 10.7039 26.5244 10.7375 26.3899 10.8048L26.2108 10.8943C25.135 11.4323 24.5971 11.7012 24.2984 12.1845C23.9997 12.6678 23.9997 13.2692 23.9997 14.4721V22.6666C23.9997 24.5522 23.9997 25.495 23.4139 26.0808C22.8281 26.6666 21.8853 26.6666 19.9997 26.6666H11.9997C10.1141 26.6666 9.17125 26.6666 8.58546 26.0808C7.99967 25.495 7.99967 24.5522 7.99967 22.6666V14.4721C7.99967 13.2692 7.99967 12.6678 7.70098 12.1845C7.40228 11.7012 6.86436 11.4323 5.78853 10.8943L5.6094 10.8048C5.47492 10.7375 5.40768 10.7039 5.37035 10.6435C5.33301 10.5831 5.33301 10.5079 5.33301 10.3576V9.83325Z" fill="#2A4157" fill-opacity="0.24"/>
<path d="M13.4245 5.82737C13.5765 5.68562 13.9112 5.56036 14.377 5.47102C14.8427 5.38168 15.4133 5.33325 16.0003 5.33325C16.5873 5.33325 17.158 5.38168 17.6237 5.47102C18.0894 5.56036 18.4242 5.68562 18.5761 5.82737" stroke="#222222" stroke-linecap="round"/>
<rect x="18.667" y="14.6667" width="1.33333" height="8" rx="0.666667" fill="#222222"/>
<rect x="12" y="14.6667" width="1.33333" height="8" rx="0.666667" fill="#222222"/>
</svg>